PathFileType	4	(X/Y/Z)	\\147.46.242.158\로컬 디스크 (e)\MOCAP Data\Iguana Capture\iguana\Project 2\Capture day 7\Session 2\Take08.trc
DataRate	CameraRate	NumFrames	NumMarkers	Units	OrigDataRate	OrigDataStartFrame	OrigNumFrames
120.0	120.0	13	23	mm	120.0	1	29130
Frame#	Time	ana:head1			ana:head2			ana:bone1			ana:bone2			ana:bone3			ana:tail1			ana:tail2			ana:tail3			ana:tail4			ana:Rforefoot1			ana:Rforefoot2			ana:Rforefoot3			ana:Lforefoot1			ana:Lforefoot2			ana:Lforefoot3			ana:RhindLeg1			ana:RhindLeg2			ana:RhindLeg3			ana:RhindLeg4			ana:LhindLeg1			ana:LhindLeg2			ana:LhindLeg3			ana:LhindLeg4			
		X1	Y1	Z1	X2	Y2	Z2	X3	Y3	Z3	X4	Y4	Z4	X5	Y5	Z5	X6	Y6	Z6	X7	Y7	Z7	X8	Y8	Z8	X9	Y9	Z9	X10	Y10	Z10	X11	Y11	Z11	X12	Y12	Z12	X13	Y13	Z13	X14	Y14	Z14	X15	Y15	Z15	X16	Y16	Z16	X17	Y17	Z17	X18	Y18	Z18	X19	Y19	Z19	X20	Y20	Z20	X21	Y21	Z21	X22	Y22	Z22	X23	Y23	Z23	

1502	12.508	611.20746	570.76849	53.27370	617.73456	579.67792	52.99380	632.91516	594.05957	41.58128	652.78632	614.23700	36.83189	682.26709	636.99774	36.31446	704.84558	658.35803	32.92149	718.64679	684.11969	24.69168	718.53680	726.79340	23.27070	706.82019	768.74573	28.43923	622.01984	592.82617	22.57999	615.18304	608.23706	15.82588	608.05444	592.36755	-0.35075	644.03125	581.39539	26.97006	656.23907	579.64850	19.35054	665.55969	574.09674	4.97717	674.44580	636.90613	19.86802	663.67633	653.02747	16.14786	681.60980	658.30170	10.74838	669.48340	649.02124	2.77522	687.17249	623.49646	26.77190	692.11694	606.06580	27.64816	709.82452	613.47186	19.94625	700.64075	612.70032	5.49622	
1503	12.517	609.69690	570.02002	53.09840	616.38031	578.84540	52.88754	631.64325	592.83612	41.50156	651.69989	612.41516	36.22395	682.03809	636.01154	37.06504	704.03949	657.32593	33.72503	717.83417	682.68060	25.93662	718.99176	725.62677	24.97665	707.00555	766.62140	27.07450	621.28180	592.56317	23.51076	615.09930	608.11694	15.73045	608.10907	591.76025	0.16502	642.79950	580.20502	27.05853	655.23407	578.30865	19.81755	662.46362	575.62567	3.58829	675.06482	639.16095	23.68587	663.43365	652.60181	16.51229	682.03052	657.99286	10.90899	669.33966	648.21057	2.70532	686.74109	622.20654	26.82413	693.02252	605.08252	26.55788	710.21039	613.54694	19.60725	700.91687	612.80780	5.28043	
1504	12.525	608.46741	569.07635	53.47714	615.30914	578.08759	53.38634	630.79858	591.82336	41.71178	651.09399	611.17297	36.44770	681.76038	635.11774	37.74557	703.03827	655.96027	33.94822	719.38538	686.10620	32.79810	719.29395	724.39917	26.49215	708.89093	765.73962	30.40009	620.08844	591.58154	22.95894	615.10797	607.83618	16.46364	608.54443	591.39032	0.42452	641.57306	578.94812	27.59421	653.60577	576.89423	20.29116	661.47540	574.51257	4.15343	675.37823	640.15076	25.83332	665.08337	653.08984	19.64592	682.10864	657.96698	11.81647	669.56860	647.98444	2.77289	686.41534	621.25293	26.50963	693.57104	604.60809	26.14932	710.80878	613.73163	19.59463	701.14941	612.99561	5.24143	
1505	12.533	607.61053	567.97308	54.07949	614.30396	576.87628	53.97362	629.82806	590.49744	42.22707	650.41687	609.63873	36.92671	679.42334	632.05463	35.57578	702.01385	654.57886	33.15474	718.43054	683.84717	31.08338	717.14899	724.65991	25.69551	710.49585	764.66925	34.57461	619.14014	590.95007	23.85076	614.47571	607.32135	17.02390	608.37482	591.53632	0.59950	639.96814	577.78247	28.10735	652.38531	575.42462	21.40284	660.20941	572.27863	5.33000	673.87494	637.96790	24.96343	663.06659	650.38049	16.45610	681.59644	657.53009	12.37332	669.49030	648.08276	3.08143	685.32922	620.07715	25.99119	693.88397	604.29840	25.30427	710.32288	615.06927	17.73676	703.20758	613.45569	5.25613	
1506	12.542	606.57751	566.93054	54.44917	613.29712	575.83282	54.33982	628.89661	589.19507	42.49391	649.80365	608.06372	37.12878	677.98773	629.48999	34.09619	700.95697	653.12988	32.57763	718.12842	683.10919	31.83186	716.65741	723.75616	26.02400	711.82788	763.47754	37.20531	618.17682	590.65924	24.60113	614.10388	606.97107	17.46987	608.35138	591.38220	0.77503	638.40057	576.53235	28.49531	650.98798	573.92419	22.28698	658.61322	570.54266	6.06363	672.91003	636.88776	24.92637	662.55725	649.02832	16.10541	681.35419	657.23584	13.04790	669.43982	648.08746	3.52827	684.61218	618.91449	25.39242	694.26196	603.84473	23.90908	709.67395	616.61316	16.01626	705.20496	613.83624	5.58625	
1507	12.550	605.60663	565.85962	54.76294	612.34827	574.76740	54.64978	628.02832	587.88025	42.74807	649.28223	606.43878	37.29609	676.63983	626.87469	32.38692	699.96210	651.71765	31.86458	717.71893	682.06396	31.87067	716.41412	722.58496	26.16843	713.06061	762.25854	39.60086	617.52747	590.83264	25.82096	613.74646	606.62213	17.89952	608.30298	591.30859	0.88395	636.72699	575.29370	28.82402	649.51117	572.35718	23.22357	656.80762	568.22766	7.00604	671.79791	635.42035	24.48447	661.99310	647.62128	15.85130	681.00909	656.88440	13.81955	669.33392	648.24866	4.23544	683.90070	617.73419	24.60402	694.50928	603.41132	22.21517	708.67413	618.47449	14.01057	707.52515	614.23090	6.10981	
1508	12.558	604.63495	564.80389	54.93809	611.40228	573.71210	54.80494	627.17194	586.58771	42.87746	648.78699	604.77606	37.27851	675.36603	624.31415	30.64208	699.01031	650.38245	31.04021	717.13354	680.62207	31.11913	716.46558	721.16083	26.08525	714.03864	760.87317	41.32857	617.19733	591.43976	27.43939	613.44830	606.27496	18.22723	608.23309	591.23260	0.90301	634.98779	574.04370	29.05802	647.95343	570.69525	24.16528	654.68982	565.33398	8.19408	670.70453	633.87280	23.96319	661.31708	646.21490	15.67626	680.59766	656.43506	14.65829	669.14459	648.49579	5.18950	683.18726	616.52374	23.66900	694.65570	602.95746	20.43951	707.52661	620.30170	12.01760	709.74890	614.59204	6.69215	
1509	12.567	603.61182	563.78101	54.92062	610.39978	572.68768	54.74779	626.28088	585.37341	42.89022	648.26880	603.14172	37.06691	674.40894	622.23706	29.27771	697.98621	649.05481	30.03436	716.52582	679.13892	30.11299	716.86420	719.45282	25.74519	714.82104	759.36340	42.21621	617.09070	592.24487	29.16078	613.33429	605.89587	18.48600	608.19763	591.16089	0.84974	633.22186	572.81793	29.21580	646.26459	568.93671	25.11310	652.14594	561.91376	9.74833	669.85321	632.51202	23.77201	660.64471	644.88031	15.85085	680.14368	655.87689	15.57471	668.87787	648.77118	6.33785	682.47351	615.31750	22.66407	694.65948	602.46429	18.78404	706.47345	621.74249	10.40321	711.47296	614.87390	7.19217	
1510	12.575	602.49689	562.81006	54.73203	609.29291	571.70618	54.51725	625.31378	584.25201	42.77607	647.67712	601.52802	36.73126	673.59967	620.54877	28.30764	696.89246	647.74921	28.92940	715.87817	677.64709	28.85764	717.32556	717.75061	24.92720	715.43140	757.75861	41.99166	617.06750	592.98047	30.66569	613.54187	605.60773	18.90098	608.20142	591.09515	0.73997	631.42981	571.61517	29.37072	644.42316	567.10034	26.10839	649.20477	558.05365	11.79002	669.25854	631.37128	24.03830	659.78381	643.53436	16.16669	679.55627	655.11267	16.58659	668.52856	648.99500	7.56482	681.73975	614.12610	21.76643	694.53955	601.94775	17.50354	705.69324	622.62323	9.34339	712.56232	615.04163	7.54512	
1511	12.583	601.27405	561.87311	54.42890	608.03448	570.74792	54.16702	624.25049	583.19537	42.61668	647.00464	599.93988	36.36874	672.92700	619.30670	27.86016	695.70844	646.47021	27.89533	715.19269	676.17932	27.55183	717.57941	716.11578	23.44075	716.17603	756.30328	40.79585	616.90692	593.36566	31.74122	614.02386	605.43195	19.55427	608.21698	590.97388	0.58504	629.57983	570.42322	29.55009	642.37964	565.20813	27.12121	645.83130	554.00360	14.31613	668.78131	630.30591	24.68226	658.71301	642.01678	16.63625	678.79022	654.15723	17.76172	668.09033	649.07465	8.73691	680.95319	612.94226	20.98208	694.29999	601.43658	16.65034	705.28088	622.87616	8.88338	712.93518	615.11108	7.65310	
1512	12.592	599.92780	560.96521	54.08250	606.64575	569.80084	53.77181	623.06061	582.17487	42.46375	646.20245	598.34882	36.10290	672.10809	618.01788	27.49275	694.29089	645.09741	26.77514	714.41083	674.75012	26.25923	717.75323	714.56000	21.36340	716.98364	754.89935	38.08107	616.44684	593.31866	32.32445	614.59882	605.27783	20.33615	608.29437	590.56305	0.36356	627.65503	569.24872	29.77646	640.13202	563.27435	28.14940	641.96112	550.12781	17.11658	668.19800	629.10303	25.36813	657.37982	640.26965	17.31965	677.50488	652.82251	18.79000	667.55676	648.91766	9.72064	680.09290	611.76416	20.46893	693.94073	600.93597	16.15254	705.09711	622.74567	8.84541	712.90924	615.10077	7.61219	
1513	12.600	598.47089	560.04120	53.78516	605.12921	568.84998	53.43265	621.75732	581.13940	42.39581	645.30066	596.75031	36.01425	671.16785	616.67151	27.32999	692.79877	643.80170	26.00907	713.50049	673.36243	25.01176	717.85406	713.06464	18.76948	718.10577	753.65009	34.08077	615.62878	592.74780	32.42697	615.16144	605.12671	21.33204	608.38245	589.87482	0.17613	625.64252	568.03925	30.03487	637.69299	561.34662	29.17676	637.75201	546.64752	20.03079	667.43427	627.72046	26.12417	655.80353	638.30597	18.27737	675.74866	650.89856	19.59025	666.90149	648.40765	10.38785	679.19220	610.58392	20.23672	693.50781	600.48553	15.87948	704.95905	622.54523	8.95987	712.90430	615.02338	7.59800	
1514	12.608	596.89984	559.10651	53.57721	603.53400	567.86572	53.20332	620.35657	580.03687	42.43480	644.32684	595.13470	36.12571	670.01483	615.12164	27.32623	691.13348	642.49036	25.41257	712.46234	672.03082	23.87498	717.95526	711.54651	15.77348	719.54822	752.43097	28.92712	614.46539	591.99921	32.34501	615.47687	604.86676	22.35240	608.35712	589.39697	0.25624	623.56659	566.77643	30.29479	635.09045	559.39148	30.11113	633.17218	543.85077	22.83234	666.29785	626.03009	26.63439	653.98871	636.14819	19.58921	673.55945	648.42950	20.17168	666.08868	647.52240	10.82019	678.18890	609.38794	20.17107	692.97839	600.11212	15.68534	704.77557	622.29901	9.05371	712.87531	614.94025	7.58148	
